<svg width="18" height="18" viewBox="0 0 18 18" fill="none" xmlns="http://www.w3.org/2000/svg">
<path d="M8.8 8.8C7.59 8.8 6.55417 8.36917 5.6925 7.5075C4.83083 6.64583 4.4 5.61 4.4 4.4C4.4 3.19 4.83083 2.15417 5.6925 1.2925C6.55417 0.430833 7.59 0 8.8 0C10.01 0 11.0458 0.430833 11.9075 1.2925C12.7692 2.15417 13.2 3.19 13.2 4.4C13.2 5.61 12.7692 6.64583 11.9075 7.5075C11.0458 8.36917 10.01 8.8 8.8 8.8ZM0 17.6V14.52C0 13.8967 0.160417 13.3238 0.48125 12.8013C0.802083 12.2787 1.22833 11.88 1.76 11.605C2.89667 11.0367 4.05167 10.6104 5.225 10.3263C6.39833 10.0421 7.59 9.9 8.8 9.9C10.01 9.9 11.2017 10.0421 12.375 10.3263C13.5483 10.6104 14.7033 11.0367 15.84 11.605C16.3717 11.88 16.7979 12.2787 17.1188 12.8013C17.4396 13.3238 17.6 13.8967 17.6 14.52V17.6H0Z" fill="currentColor"/>
</svg>
